# xmcd CD database file
#
# Track frame offsets:
#	150
#	26518
#	56818
#	110412
#	143510
#	154272
#	214986
#	254586
#
# Disc length: 3609 seconds
#
# Revision: 1
# Processed by: cddbd v1.4PL0 Copyright (c) Steve Scherf et al.
# Submitted via: CDex 1.50beta10
#
DISCID=720e1708
DTITLE=Edwin Berg - Trio
DYEAR=1900
DGENRE=Jazz
TTITLE0=I want to be (there where you take me)
TTITLE1=Dipertido
TTITLE2=Con alma
TTITLE3=Love is here to Stay
TTITLE4=Intro to corovado
TTITLE5=Caravan
TTITLE6=a happy
TTITLE7=Reunion
EXTD=
EXTT0=
EXTT1=
EXTT2=
EXTT3=
EXTT4=
EXTT5=
EXTT6=
EXTT7=
PLAYORDER=
